# xmcd
#
# Track frame offsets: 
#        150
#        611
#        18660
#        40471
#        56261
#        74078
#        89529
#        103287
#        121213
#        141484
#        161801
#        180388
#        198532
#        217779
#        235844
#        249222
#        272244
#        288311
#        307844
#        329383
#        346404
#
# Disc length: 4795 seconds
#
# Revision: 0
# Processed by: cddbd v1.5.2PL0 Copyright (c) Steve Scherf et al.
# Submitted via: ExactAudioCopy v0.99pb4
#
DISCID=3812b915
DTITLE=Various Artist - prevue promo 1093A-2
DYEAR=2002
DGENRE=pop
TTITLE0=blank - data
TTITLE1=Ashanti - Happy(Radio Edit)
TTITLE2=Ben Green - Two To One
TTITLE3=David Lanz - That Smile(Instrumental)
TTITLE4=Raven - Something's Gotta Give
TTITLE5=Diana King - Summer Breezin'
TTITLE6=Kelly Price - Someday
TTITLE7=3LW with P. Diddy and Loon - I Do (Wanna Get Close To You - Ra
TTITLE7=dio Edit with Rap)
TTITLE8=Gerald Levert and Mystikal (G Spot) - Too Much Room
TTITLE9=Joe McBride and The Texas Rhythm Band - Woke Up This Morning (
TTITLE9=Soprano's Theme)
TTITLE10=Joe McBride and The Texas Rhythm Band - Woke Up This Morning(
TTITLE10=Soprano's Theme Inst. Version)
TTITLE11=Ed Harcourt - Apple Of My Eye
TTITLE12=Van Morrison - Down The Road
TTITLE13=Marah - Float Away (All Of The Streets Are Lonely)
TTITLE14=Injected - Bullet (What Did You Sell Your Soul For? - Lyrics!
TTITLE14=!! -  - Radio Edit)
TTITLE15=Down - Ghosts Along The Mississippi
TTITLE16=Andrew W.K. - She Is Beautiful
TTITLE17=Nickelback - Never Again(Lyrics!!!)
TTITLE18=Soulfly - Enter Faith
TTITLE19=Pillar - Fireproof
TTITLE20=12 Stones - Broken( Radio Version # 1)
EXTD=
EXTT0=
EXTT1=
EXTT2=
EXTT3=
EXTT4=
EXTT5=
EXTT6=
EXTT7=
EXTT8=
EXTT9=
EXTT10=
EXTT11=
EXTT12=
EXTT13=
EXTT14=
EXTT15=
EXTT16=
EXTT17=
EXTT18=
EXTT19=
EXTT20=
PLAYORDER=
